<?xml version="1.0" standalone="no"?>
<!DOCTYPE svg PUBLIC "-//W3C//DTD SVG 20010904//EN"
 "http://www.w3.org/TR/2001/REC-SVG-20010904/DTD/svg10.dtd">
<svg version="1.0" xmlns="http://www.w3.org/2000/svg"
 width="146.000000pt" height="146.000000pt" viewBox="0 0 146.000000 146.000000"
 preserveAspectRatio="xMidYMid meet">
<metadata>
Created by potrace 1.14, written by Peter Selinger 2001-2017
</metadata>
<g transform="translate(0.000000,146.000000) scale(0.100000,-0.100000)"
fill="#000000" stroke="none">
<path d="M814 1255 c-18 -8 -49 -15 -70 -16 -22 -1 -64 -8 -94 -15 -30 -7 -92
-18 -137 -24 -46 -6 -115 -19 -155 -30 -40 -10 -100 -21 -133 -25 -75 -8 -105
-20 -127 -49 -14 -19 -15 -34 -7 -107 5 -46 13 -203 18 -349 5 -157 13 -276
19 -293 7 -16 12 -43 12 -60 0 -18 4 -38 8 -44 15 -23 136 -36 342 -37 229 -1
340 16 500 73 47 17 93 31 102 31 17 0 84 34 102 51 6 5 20 9 32 9 36 0 117
46 142 80 27 37 32 97 13 180 -7 30 -16 75 -21 100 -5 25 -16 79 -25 120 -9
41 -20 109 -24 150 -17 149 -53 253 -93 263 -47 13 -371 6 -404 -8z m396 -77
c21 -57 30 -101 40 -183 5 -44 16 -114 25 -155 9 -41 20 -95 25 -120 12 -61
19 -96 32 -152 9 -42 7 -51 -11 -74 -21 -27 -85 -64 -111 -64 -8 0 -30 -9 -47
-20 -51 -30 -258 -99 -368 -122 -180 -37 -555 -35 -555 3 0 5 -9 9 -20 9 -14
0 -20 7 -20 23 0 13 -5 28 -12 35 -9 9 -15 93 -20 285 -4 149 -11 304 -15 343
-5 48 -4 75 3 82 6 5 40 13 75 17 35 4 107 17 159 30 52 13 122 26 155 30 33
3 85 13 116 21 31 8 74 14 95 14 22 1 53 7 69 15 21 9 79 14 202 14 l171 1 12
-32z"/>
<path d="M620 1089 c-36 -13 -79 -20 -127 -20 -65 1 -75 -2 -98 -25 -26 -26
-26 -27 -22 -157 2 -73 12 -181 21 -242 25 -163 23 -155 53 -155 l26 0 -7 83
c-3 45 -9 99 -12 120 l-7 37 41 0 c58 0 92 18 92 48 0 24 -1 24 -57 17 -32 -4
-66 -11 -75 -16 -17 -9 -18 -1 -18 111 l0 120 71 0 c45 0 98 8 145 23 63 19
74 25 74 45 0 12 -4 22 -9 22 -5 0 -15 2 -23 4 -7 3 -38 -4 -68 -15z"/>
<path d="M805 833 c-42 -11 -45 -20 -45 -159 0 -90 -4 -141 -12 -155 -11 -18
-10 -23 15 -45 15 -13 41 -24 56 -24 104 0 291 70 316 118 6 11 17 27 24 36 9
11 12 33 9 65 -4 40 -13 60 -47 100 -35 41 -50 51 -92 60 -50 11 -186 13 -224
4z m202 -53 c103 -22 144 -144 68 -200 -33 -24 -126 -59 -188 -70 -64 -12
-107 -6 -88 13 7 7 11 58 11 133 0 89 3 124 13 127 22 9 135 7 184 -3z"/>
</g>
</svg>
